<svg xmlns="http://www.w3.org/2000/svg" version="1.1" xmlns:xlink="http://www.w3.org/1999/xlink" xmlns:svgjs="http://svgjs.com/svgjs" width="512" height="512" x="0" y="0" viewBox="0 0 24 24" style="enable-background:new 0 0 512 512" xml:space="preserve" class=""><g><path d="M12 0C5.383 0 0 5.383 0 12s5.383 12 12 12 12-5.383 12-12S18.617 0 12 0Zm0 22C6.486 22 2 17.514 2 12S6.486 2 12 2s10 4.486 10 10-4.486 10-10 10Zm4-15v10a1 1 0 1 1-2 0v-3h-3c-1.654 0-3-1.346-3-3V7a1 1 0 1 1 2 0v4a1 1 0 0 0 1 1h3V7a1 1 0 1 1 2 0Z" fill="#192a3e" data-original="#000000"></path></g></svg>