<svg xmlns="http://www.w3.org/2000/svg" viewBox="0 0 750 500"><g id="freepik--Folder--inject-109"><path d="M299,234.54,263.6,416.34,259,440.14,495,439c10.6-.05,20-9.46,23.39-23.44l41.86-171.63c2.59-10.61-3.09-21.65-11.13-21.64l-238.92.25C305,222.53,300.34,227.45,299,234.54Z" style="fill:#407BFF"></path><g style="opacity:0.5"><path d="M299,234.54,263.6,416.34,259,440.14,495,439c10.6-.05,20-9.46,23.39-23.44l41.86-171.63c2.59-10.61-3.09-21.65-11.13-21.64l-238.92.25C305,222.53,300.34,227.45,299,234.54Z"></path></g><path d="M472.39,404l-25-201.41c-1-8.25-7.59-14.41-15.36-14.38l-54.8.17a15,15,0,0,0-10.83,4.8l-26,27.67L188,221.67c-9.31.05-16.47,8.87-15.24,18.77l23.21,186.15c1,8.24,7.59,14.39,15.34,14.38l265.65-.53c29.58.61,32.41-8.12,32.41-8.12C475.41,439.83,472.39,404.05,472.39,404Z" style="fill:#407BFF"></path><g style="opacity:0.5"><polygon points="357.84 363.72 348.88 373.34 279.88 311.26 288.84 301.64 357.84 363.72" style="fill:#fff"></polygon><polygon points="345.13 299.51 355.03 308.42 292.6 375.47 282.69 366.56 345.13 299.51" style="fill:#fff"></polygon></g></g></svg>