<svg xmlns="http://www.w3.org/2000/svg" version="1.1" xmlns:xlink="http://www.w3.org/1999/xlink" xmlns:svgjs="http://svgjs.com/svgjs" width="512" height="512" x="0" y="0" viewBox="0 0 24 24" style="enable-background:new 0 0 512 512" xml:space="preserve"><g><path d="M12 24C5.383 24 0 18.617 0 12S5.383 0 12 0s12 5.383 12 12-5.383 12-12 12Zm0-22C6.486 2 2 6.486 2 12s4.486 10 10 10 10-4.486 10-10S17.514 2 12 2Zm2.901 14.754a3.973 3.973 0 0 0 1.094-2.968C15.884 11.663 14.054 10 11.83 10H10V8h4a1 1 0 1 0 0-2h-4c-1.103 0-2 .897-2 2v3a1 1 0 0 0 1 1h2.83c1.141 0 2.112.849 2.167 1.891a1.985 1.985 0 0 1-.547 1.486A1.985 1.985 0 0 1 12 16H9a1 1 0 1 0 0 2h3a4.017 4.017 0 0 0 2.901-1.246Z" fill="#192a3e" data-original="#000000"></path></g></svg>