<svg xmlns="http://www.w3.org/2000/svg" version="1.1" xmlns:xlink="http://www.w3.org/1999/xlink" xmlns:svgjs="http://svgjs.com/svgjs" width="512" height="512" x="0" y="0" viewBox="0 0 24 24" style="enable-background:new 0 0 512 512" xml:space="preserve" class=""><g><path d="M24 12c0-1.696-.86-3.191-2.168-4.073a4.906 4.906 0 0 0-1.347-4.413 4.905 4.905 0 0 0-4.413-1.347C15.19.859 13.695-.001 11.999-.001s-3.191.86-4.073 2.168a4.905 4.905 0 0 0-4.413 1.347 4.905 4.905 0 0 0-1.347 4.413C.858 8.809-.002 10.304-.002 12s.86 3.191 2.168 4.073a4.905 4.905 0 0 0 1.347 4.413 4.905 4.905 0 0 0 4.413 1.347c.882 1.308 2.377 2.168 4.073 2.168s3.191-.86 4.073-2.168a4.905 4.905 0 0 0 4.413-1.347 4.905 4.905 0 0 0 1.347-4.413A4.904 4.904 0 0 0 24 12Zm-13.356-1.24 3.041.507A2.761 2.761 0 0 1 16 14c0 1.654-1.346 3-3 3v2h-2v-2c-1.654 0-3-1.346-3-3h2c0 .551.449 1 1 1h2c.552 0 1-.449 1-1a.768.768 0 0 0-.644-.76l-3.042-.507A2.762 2.762 0 0 1 7.999 10c0-1.654 1.346-3 3-3V5h2v2c1.654 0 3 1.346 3 3h-2c0-.551-.448-1-1-1h-2c-.551 0-1 .449-1 1 0 .378.271.698.644.76Z" fill="#2f81fb" data-original="#000000"></path></g></svg>