<svg xmlns="http://www.w3.org/2000/svg" version="1.1" xmlns:xlink="http://www.w3.org/1999/xlink" xmlns:svgjs="http://svgjs.com/svgjs" width="512" height="512" x="0" y="0" viewBox="0 0 24 24" style="enable-background:new 0 0 512 512" xml:space="preserve" class=""><g><path d="M12.836.029C9.362-.206 5.961 1.065 3.508 3.521S-.211 9.378.03 12.854C.47 19.208 6.082 24 13.084 24h5.917c2.757 0 5-2.243 5-5v-6.66C24 5.862 19.096.454 12.836.029ZM7 13.5a1.5 1.5 0 1 1 .001-3.001A1.5 1.5 0 0 1 7 13.5Zm5 0a1.5 1.5 0 1 1 .001-3.001A1.5 1.5 0 0 1 12 13.5Zm5 0a1.5 1.5 0 1 1 .001-3.001A1.5 1.5 0 0 1 17 13.5Z" fill="#192a3e" data-original="#000000" class=""></path></g></svg>