<svg xmlns="http://www.w3.org/2000/svg" version="1.1" xmlns:xlink="http://www.w3.org/1999/xlink" xmlns:svgjs="http://svgjs.com/svgjs" width="512" height="512" x="0" y="0" viewBox="0 0 512 512" style="enable-background:new 0 0 512 512" xml:space="preserve" class=""><g><path d="M256 512c141.385 0 256-114.615 256-256S397.385 0 256 0 0 114.615 0 256c.153 141.322 114.678 255.847 256 256zm-21.333-384c0-11.782 9.551-21.333 21.333-21.333 11.782 0 21.333 9.551 21.333 21.333v170.667c0 11.782-9.551 21.333-21.333 21.333-11.782 0-21.333-9.551-21.333-21.333V128zM256 384c11.782 0 21.333 9.551 21.333 21.333s-9.551 21.333-21.333 21.333c-11.782 0-21.333-9.551-21.333-21.333S244.218 384 256 384z" fill="#ffb946" data-original="#000000" class=""></path></g></svg>