<?xml version="1.0" encoding="UTF-8"?>
<svg id="Calque_2" data-name="Calque 2" xmlns="http://www.w3.org/2000/svg" viewBox="0 0 472.11 110.31">
  <defs>
    <style>
      .cls-1 {
        fill: #109CF1;
      }
    </style>
  </defs>
  <g id="_Слой_1" data-name="Слой 1">
    <g>
      <g>
        <path class="cls-1" d="m171.37,0v33.76c-4.57-6.12-10.95-9.39-19.15-9.81-1.15-.1-2.29-.15-3.43-.15-10.59,0-19.11,3.21-25.54,9.65-7.07,7.06-10.59,16.04-10.59,26.95s3.34,20.06,10.04,26.55c6.7,6.49,15.19,9.73,25.47,9.73,1.45,0,2.9-.05,4.36-.15,8.51-.52,14.95-4.15,19.31-10.9v9.65h19.62V0h-20.09Zm-4.83,75.5c-3.53,3.53-8.2,5.3-14.01,5.3s-10.26-1.77-13.94-5.3c-3.69-3.52-5.53-8.56-5.53-15.1s1.81-11.76,5.45-15.34c3.63-3.59,8.31-5.38,14.02-5.38s10.61,1.64,14.09,4.91c3.48,3.27,5.22,8.49,5.22,15.65,0,6.65-1.77,11.74-5.3,15.26Z"/>
        <path class="cls-1" d="m273.38,60.4c0-11.11-3.19-20.02-9.57-26.71-6.39-6.7-15.29-10.05-26.71-10.05s-20.77,3.37-27.42,10.12c-6.64,6.86-9.96,15.73-9.96,26.64s3.45,19.96,10.35,26.55c6.91,6.6,15.97,9.89,27.18,9.89,5.61,0,10.64-.83,15.11-2.49,4.46-1.66,7.84-3.51,10.12-5.53,2.28-2.03,4.23-4.36,5.84-7.01,1.61-2.65,2.6-4.49,2.96-5.53.36-1.03.6-1.87.7-2.49h-20.09l-.31.78c-.21.52-.65,1.14-1.32,1.87-.68.73-1.51,1.43-2.5,2.1-.98.68-2.39,1.27-4.2,1.79-1.82.52-3.87.78-6.15.78-4.88,0-9.01-1.35-12.38-4.05-3.38-2.7-5.28-6.33-5.69-10.9h53.73c.21-1.97.31-3.9.31-5.76Zm-19.46-7.64h-34.58c.62-3.94,2.52-7.16,5.69-9.65,3.16-2.49,7.24-3.74,12.22-3.74s8.88,1.17,11.99,3.5c3.12,2.34,4.68,5.48,4.68,9.43v.46Z"/>
        <path class="cls-1" d="m353.12,60.4c0-11.11-3.19-20.02-9.58-26.71-6.38-6.7-15.29-10.05-26.71-10.05s-20.76,3.37-27.41,10.12c-6.64,6.86-9.96,15.73-9.96,26.64s3.45,19.96,10.35,26.55c6.91,6.6,15.97,9.89,27.18,9.89,5.61,0,10.64-.83,15.11-2.49,4.46-1.66,7.83-3.51,10.12-5.53,2.28-2.03,4.23-4.36,5.84-7.01,1.61-2.65,2.59-4.49,2.96-5.53.36-1.03.6-1.87.7-2.49h-20.09l-.31.78c-.21.52-.65,1.14-1.33,1.87-.67.73-1.5,1.43-2.49,2.1-.98.68-2.39,1.27-4.2,1.79-1.82.52-3.87.78-6.15.78-4.89,0-9.01-1.35-12.39-4.05-3.37-2.7-5.27-6.33-5.68-10.9h53.73c.21-1.97.31-3.9.31-5.76Zm-19.46-7.64h-34.58c.62-3.94,2.51-7.16,5.68-9.65,3.17-2.49,7.25-3.74,12.23-3.74s8.88,1.17,11.99,3.5c3.12,2.34,4.68,5.48,4.68,9.43v.46Z"/>
        <path class="cls-1" d="m432.86,60.4c0-11.11-3.19-20.02-9.58-26.71-6.38-6.7-15.29-10.05-26.71-10.05s-20.77,3.37-27.41,10.12c-6.65,6.86-9.97,15.73-9.97,26.64s3.45,19.96,10.36,26.55c6.9,6.6,15.96,9.89,27.18,9.89,5.61,0,10.64-.83,15.11-2.49,4.46-1.66,7.83-3.51,10.12-5.53,2.28-2.03,4.23-4.36,5.84-7.01,1.61-2.65,2.59-4.49,2.96-5.53.36-1.03.59-1.87.7-2.49h-20.09l-.31.78c-.21.52-.65,1.14-1.33,1.87-.67.73-1.5,1.43-2.49,2.1-.99.68-2.39,1.27-4.2,1.79-1.82.52-3.87.78-6.16.78-4.88,0-9-1.35-12.38-4.05-3.37-2.7-5.27-6.33-5.68-10.9h53.73c.21-1.97.31-3.9.31-5.76Zm-19.47-7.64h-34.57c.62-3.94,2.51-7.16,5.68-9.65s7.24-3.74,12.23-3.74,8.88,1.17,11.99,3.5c3.12,2.34,4.67,5.48,4.67,9.43v.46Z"/>
        <path class="cls-1" d="m466.5,78.46c-1.97,0-3.32-.39-4.05-1.16-.73-.78-1.09-2.16-1.09-4.13V0h-20.09v73.17c0,8.93,1.79,14.85,5.37,17.75,3.59,2.91,10.2,4.36,19.86,4.36h5.61v-16.82h-5.61Z"/>
      </g>
      <g>
        <path class="cls-1" d="m69.85,63.02c-1.15,10.37-9.39,18.8-19.74,20.14-7.01.92-13.51-1.34-18.26-5.52l20.22-12.24c4.52-1.81,4.52-8.2,0-10l-19.81-12.58c3.99-3.37,9.14-5.39,14.76-5.39,13.55,0,24.36,11.73,22.83,25.59Z"/>
        <path class="cls-1" d="m47.02,10.48c-15.23,0-28.86,6.82-38.02,17.57l12.94,8.21c6.34-6.58,15.24-10.67,25.08-10.67,19.23,0,34.81,15.58,34.81,34.81s-15.58,34.8-34.81,34.8c-10.13,0-19.25-4.32-25.61-11.24l-13.11,7.94c9.15,11.24,23.1,18.41,38.72,18.41,27.57,0,49.92-22.34,49.92-49.91S74.59,10.48,47.02,10.48Z"/>
        <path class="cls-1" d="m49.19,59.2c1.08.43,1.08,1.96,0,2.39l-22.72,9.07-11.02,4.4-14.05,5.61h0c-.96.38-1.81-.74-1.18-1.56l.34-.44,11.78-15.3,2.29-2.98-2.29-2.98L.56,42.12l-.34-.44c-.63-.82.22-1.94,1.18-1.56h0s14.05,5.61,14.05,5.61l11.02,4.4,22.72,9.07Z"/>
      </g>
    </g>
  </g>
</svg>