<svg xmlns="http://www.w3.org/2000/svg" version="1.1" xmlns:xlink="http://www.w3.org/1999/xlink" xmlns:svgjs="http://svgjs.com/svgjs" width="512" height="512" x="0" y="0" viewBox="0 0 512 512" style="enable-background:new 0 0 512 512" xml:space="preserve" class=""><g><path d="M480 224H32c-17.673 0-32 14.327-32 32s14.327 32 32 32h448c17.673 0 32-14.327 32-32s-14.327-32-32-32zM32 138.667h448c17.673 0 32-14.327 32-32s-14.327-32-32-32H32c-17.673 0-32 14.327-32 32s14.327 32 32 32zM480 373.333H32c-17.673 0-32 14.327-32 32s14.327 32 32 32h448c17.673 0 32-14.327 32-32s-14.327-32-32-32z" fill="#c2cfe0" data-original="#000000"></path></g></svg>