<svg xmlns="http://www.w3.org/2000/svg" version="1.1" xmlns:xlink="http://www.w3.org/1999/xlink" xmlns:svgjs="http://svgjs.com/svgjs" width="512" height="512" x="0" y="0" viewBox="0 0 48 48" style="enable-background:new 0 0 512 512" xml:space="preserve" class=""><g><path fill="#109CF1" d="M40 0H8a8.01 8.01 0 0 0-8 8v32a8.01 8.01 0 0 0 8 8h32a8.01 8.01 0 0 0 8-8V8a8.01 8.01 0 0 0-8-8zm-3.133 19.618L21.739 34.746a3.988 3.988 0 0 1-2.043 1.094l-3.536.707a4 4 0 0 1-4.707-4.707l.707-3.536a3.99 3.99 0 0 1 1.092-2.043l15.13-15.129a3.998 3.998 0 0 1 5.657.001l2.828 2.828a3.998 3.998 0 0 1 0 5.657zm-5.657-5.657 2.83 2.829-15.128 15.127-.002.001-3.535.707.707-3.536z" data-original="#f44336" class=""></path></g></svg>