<svg xmlns="http://www.w3.org/2000/svg" version="1.1" xmlns:xlink="http://www.w3.org/1999/xlink" xmlns:svgjs="http://svgjs.com/svgjs" width="512" height="512" x="0" y="0" viewBox="0 0 24 24" style="enable-background:new 0 0 512 512" xml:space="preserve" class=""><g><path d="m1.327 12.4 3.56 2.6-1.352 4.187A3.178 3.178 0 0 0 4.719 22.8a3.177 3.177 0 0 0 3.8-.019L12 20.219l3.482 2.559a3.227 3.227 0 0 0 4.983-3.591L19.113 15l3.56-2.6a3.227 3.227 0 0 0-1.9-5.832H16.4l-1.327-4.136a3.227 3.227 0 0 0-6.146 0L7.6 6.568H3.231a3.227 3.227 0 0 0-1.9 5.832Z" fill="#ffb946" data-original="#000000" class=""></path></g></svg>