<svg xmlns="http://www.w3.org/2000/svg" version="1.1" xmlns:xlink="http://www.w3.org/1999/xlink" xmlns:svgjs="http://svgjs.com/svgjs" width="512" height="512" x="0" y="0" viewBox="0 0 24 24" style="enable-background:new 0 0 512 512" xml:space="preserve" class=""><g><path d="M12 0C5.38 0 0 5.38 0 12s5.38 12 12 12 12-5.38 12-12S18.62 0 12 0Zm5.17 11.62L15 13.39l.9 2.73c.12.37 0 .78-.31 1.01-.31.24-.73.25-1.06.04l-2.52-1.64-2.48 1.66c-.15.1-.33.15-.51.15-.19 0-.39-.06-.55-.18a.912.912 0 0 1-.32-1.01l.86-2.76-2.18-1.77a.92.92 0 0 1-.27-1.01c.13-.36.48-.6.86-.6h2.75l.97-2.61c.13-.36.48-.6.86-.6s.73.24.86.6l.97 2.61h2.75c.38 0 .73.24.86.6s.02.77-.27 1.02Z" fill="#109cf1" data-original="#000000" class=""></path></g></svg>