<svg xmlns="http://www.w3.org/2000/svg" version="1.1" xmlns:xlink="http://www.w3.org/1999/xlink" xmlns:svgjs="http://svgjs.com/svgjs" width="512" height="512" x="0" y="0" viewBox="0 0 24 24" style="enable-background:new 0 0 512 512" xml:space="preserve" class=""><g><path d="M12 0C5.383 0 0 5.383 0 12s5.383 12 12 12 12-5.383 12-12S18.617 0 12 0Zm5.665 16.587-.522.6a2.804 2.804 0 0 1-2 .813C11.429 18 6 12.857 6 8.857c0-.723.261-1.449.813-2l.6-.522a1.143 1.143 0 0 1 1.616 0l1 1.302c.446.446.446 1.17 0 1.616l-.851 1.069c.901 2.244 2.429 3.71 4.5 4.5l1.069-.851a1.143 1.143 0 0 1 1.616 0l1.302 1c.446.446.446 1.17 0 1.616Z" fill="#ffb946" data-original="#000000" class=""></path></g></svg>