<svg xmlns="http://www.w3.org/2000/svg" version="1.1" xmlns:xlink="http://www.w3.org/1999/xlink" xmlns:svgjs="http://svgjs.com/svgjs" width="512" height="512" x="0" y="0" viewBox="0 0 24 24" style="enable-background:new 0 0 512 512" xml:space="preserve" class=""><g><path d="M12 0C5.383 0 0 5.383 0 12c.603 15.898 23.4 15.894 24 0 0-6.617-5.383-12-12-12Zm1 17v1c-.005 1.308-1.995 1.307-2 0v-1h-.268a3.01 3.01 0 0 1-2.598-1.499 1 1 0 1 1 1.73-1.002c.179.31.511.501.867.501h2.268c.997.065 1.443-1.55.356-1.76l-3.041-.507C6.812 12.084 7.566 6.98 10.999 7V6c.006-1.308 1.995-1.307 2 0v1h.268c1.067 0 2.063.575 2.598 1.5a1 1 0 1 1-1.73 1.001 1.004 1.004 0 0 0-.867-.5H11c-.997-.065-1.442 1.55-.356 1.76l3.041.507c3.502.649 2.748 5.753-.685 5.733Z" fill="#c2cfe0" data-original="#000000" class=""></path></g></svg>